<mxfile host="app.diagrams.net" agent="Mozilla/5.0 (Windows NT 10.0; Win64; x64) AppleWebKit/537.36 (KHTML, like Gecko) Chrome/131.0.0.0 Safari/537.36" version="26.0.2">
  <diagram name="Page-1" id="OeI0376w6jKVr2weyoQS">
    <mxGraphModel dx="724" dy="360" grid="1" gridSize="10" guides="1" tooltips="1" connect="1" arrows="1" fold="1" page="1" pageScale="1" pageWidth="850" pageHeight="1100" math="0" shadow="0">
      <root>
        <mxCell id="0" />
        <mxCell id="1" parent="0" />
        <mxCell id="vYGNaXC8YfMBViBSfSM6-1" value="" style="rounded=1;whiteSpace=wrap;html=1;fillColor=#000000;strokeColor=default;strokeWidth=3;fontFamily=Times New Roman;fontStyle=1" parent="1" vertex="1">
          <mxGeometry x="50" y="250" width="80" height="50" as="geometry" />
        </mxCell>
        <mxCell id="vYGNaXC8YfMBViBSfSM6-3" value="&lt;font style=&quot;font-size: 18px;&quot;&gt;âŠ¥&lt;/font&gt;" style="rounded=1;whiteSpace=wrap;html=1;fillColor=#FFFFFF;strokeColor=default;strokeWidth=3;fontFamily=Times New Roman;fontStyle=1" parent="1" vertex="1">
          <mxGeometry x="55" y="255" width="70" height="40" as="geometry" />
        </mxCell>
        <mxCell id="vYGNaXC8YfMBViBSfSM6-4" value="" style="rounded=1;whiteSpace=wrap;html=1;fillColor=#000000;strokeColor=default;strokeWidth=3;fontFamily=Times New Roman;fontStyle=1" parent="1" vertex="1">
          <mxGeometry x="160" y="190" width="80" height="50" as="geometry" />
        </mxCell>
        <mxCell id="vYGNaXC8YfMBViBSfSM6-5" value="Epoch&lt;div&gt;2&lt;/div&gt;" style="rounded=1;whiteSpace=wrap;html=1;fillColor=#FFFFFF;strokeColor=default;strokeWidth=3;fontFamily=Times New Roman;fontStyle=1" parent="1" vertex="1">
          <mxGeometry x="165" y="195" width="70" height="40" as="geometry" />
        </mxCell>
        <mxCell id="vYGNaXC8YfMBViBSfSM6-6" value="" style="rounded=1;whiteSpace=wrap;html=1;strokeWidth=3;fontFamily=Times New Roman;fontStyle=1" parent="1" vertex="1">
          <mxGeometry x="160" y="320" width="80" height="50" as="geometry" />
        </mxCell>
        <mxCell id="vYGNaXC8YfMBViBSfSM6-7" value="Epoch&lt;div&gt;1&lt;/div&gt;" style="rounded=1;whiteSpace=wrap;html=1;strokeWidth=3;fontFamily=Times New Roman;fontStyle=1" parent="1" vertex="1">
          <mxGeometry x="165" y="325" width="70" height="40" as="geometry" />
        </mxCell>
        <mxCell id="vYGNaXC8YfMBViBSfSM6-17" style="edgeStyle=orthogonalEdgeStyle;rounded=0;orthogonalLoop=1;jettySize=auto;html=1;exitX=0;exitY=0.5;exitDx=0;exitDy=0;entryX=1;entryY=0.5;entryDx=0;entryDy=0;strokeWidth=3;fontFamily=Times New Roman;fontStyle=1;strokeColor=default;" parent="1" source="vYGNaXC8YfMBViBSfSM6-8" target="vYGNaXC8YfMBViBSfSM6-4" edge="1">
          <mxGeometry relative="1" as="geometry" />
        </mxCell>
        <mxCell id="vYGNaXC8YfMBViBSfSM6-8" value="" style="rounded=1;whiteSpace=wrap;html=1;fillColor=#000000;strokeColor=default;strokeWidth=3;fontFamily=Times New Roman;fontStyle=1" parent="1" vertex="1">
          <mxGeometry x="270" y="190" width="80" height="50" as="geometry" />
        </mxCell>
        <mxCell id="vYGNaXC8YfMBViBSfSM6-9" value="Epoch&lt;div&gt;4&lt;/div&gt;" style="rounded=1;whiteSpace=wrap;html=1;fillColor=#FFFFFF;strokeColor=default;strokeWidth=3;fontFamily=Times New Roman;fontStyle=1" parent="1" vertex="1">
          <mxGeometry x="275" y="195" width="70" height="40" as="geometry" />
        </mxCell>
        <mxCell id="vYGNaXC8YfMBViBSfSM6-23" style="edgeStyle=orthogonalEdgeStyle;rounded=0;orthogonalLoop=1;jettySize=auto;html=1;exitX=0;exitY=0.5;exitDx=0;exitDy=0;entryX=1;entryY=0.5;entryDx=0;entryDy=0;strokeWidth=3;fontFamily=Times New Roman;fontStyle=1" parent="1" source="vYGNaXC8YfMBViBSfSM6-10" target="vYGNaXC8YfMBViBSfSM6-6" edge="1">
          <mxGeometry relative="1" as="geometry" />
        </mxCell>
        <mxCell id="vYGNaXC8YfMBViBSfSM6-10" value="" style="rounded=1;whiteSpace=wrap;html=1;strokeWidth=3;fontFamily=Times New Roman;fontStyle=1" parent="1" vertex="1">
          <mxGeometry x="270" y="320" width="80" height="50" as="geometry" />
        </mxCell>
        <mxCell id="vYGNaXC8YfMBViBSfSM6-11" value="Epoch&lt;div&gt;3&lt;/div&gt;" style="rounded=1;whiteSpace=wrap;html=1;strokeWidth=3;fontFamily=Times New Roman;fontStyle=1" parent="1" vertex="1">
          <mxGeometry x="275" y="325" width="70" height="40" as="geometry" />
        </mxCell>
        <mxCell id="vYGNaXC8YfMBViBSfSM6-18" style="edgeStyle=orthogonalEdgeStyle;rounded=0;orthogonalLoop=1;jettySize=auto;html=1;exitX=0;exitY=0.5;exitDx=0;exitDy=0;entryX=1;entryY=0.5;entryDx=0;entryDy=0;strokeWidth=3;fontFamily=Times New Roman;fontStyle=1;strokeColor=default;" parent="1" source="vYGNaXC8YfMBViBSfSM6-12" target="vYGNaXC8YfMBViBSfSM6-8" edge="1">
          <mxGeometry relative="1" as="geometry" />
        </mxCell>
        <mxCell id="vYGNaXC8YfMBViBSfSM6-12" value="" style="rounded=1;whiteSpace=wrap;html=1;fillColor=#000000;strokeColor=default;strokeWidth=3;fontFamily=Times New Roman;fontStyle=1" parent="1" vertex="1">
          <mxGeometry x="380" y="190" width="80" height="50" as="geometry" />
        </mxCell>
        <mxCell id="vYGNaXC8YfMBViBSfSM6-13" value="Epoch&lt;div&gt;5&lt;/div&gt;" style="rounded=1;whiteSpace=wrap;html=1;fillColor=default;strokeColor=default;strokeWidth=3;fontFamily=Times New Roman;fontStyle=1" parent="1" vertex="1">
          <mxGeometry x="385" y="195" width="70" height="40" as="geometry" />
        </mxCell>
        <mxCell id="vYGNaXC8YfMBViBSfSM6-14" value="" style="rounded=1;whiteSpace=wrap;html=1;strokeWidth=3;fontFamily=Times New Roman;fontStyle=1" parent="1" vertex="1">
          <mxGeometry x="490" y="190" width="80" height="50" as="geometry" />
        </mxCell>
        <mxCell id="vYGNaXC8YfMBViBSfSM6-19" style="edgeStyle=orthogonalEdgeStyle;rounded=0;orthogonalLoop=1;jettySize=auto;html=1;exitX=0;exitY=0.5;exitDx=0;exitDy=0;entryX=1;entryY=0.5;entryDx=0;entryDy=0;strokeWidth=3;fontFamily=Times New Roman;fontStyle=1" parent="1" source="vYGNaXC8YfMBViBSfSM6-14" target="vYGNaXC8YfMBViBSfSM6-12" edge="1">
          <mxGeometry relative="1" as="geometry" />
        </mxCell>
        <mxCell id="vYGNaXC8YfMBViBSfSM6-15" value="Epoch&lt;div&gt;6&lt;/div&gt;" style="rounded=1;whiteSpace=wrap;html=1;strokeWidth=3;fontFamily=Times New Roman;fontStyle=1" parent="1" vertex="1">
          <mxGeometry x="495" y="195" width="70" height="40" as="geometry" />
        </mxCell>
        <mxCell id="vYGNaXC8YfMBViBSfSM6-16" value="" style="endArrow=classic;html=1;rounded=0;exitX=0;exitY=0.5;exitDx=0;exitDy=0;entryX=1;entryY=0.5;entryDx=0;entryDy=0;strokeWidth=3;fontFamily=Times New Roman;fontStyle=1;strokeColor=default;" parent="1" source="vYGNaXC8YfMBViBSfSM6-4" target="vYGNaXC8YfMBViBSfSM6-1" edge="1">
          <mxGeometry width="50" height="50" relative="1" as="geometry">
            <mxPoint x="400" y="300" as="sourcePoint" />
            <mxPoint x="450" y="250" as="targetPoint" />
          </mxGeometry>
        </mxCell>
        <mxCell id="vYGNaXC8YfMBViBSfSM6-22" value="" style="endArrow=classic;html=1;rounded=0;exitX=0;exitY=0.5;exitDx=0;exitDy=0;entryX=1;entryY=0.5;entryDx=0;entryDy=0;strokeWidth=3;fontFamily=Times New Roman;fontStyle=1" parent="1" source="vYGNaXC8YfMBViBSfSM6-6" target="vYGNaXC8YfMBViBSfSM6-1" edge="1">
          <mxGeometry width="50" height="50" relative="1" as="geometry">
            <mxPoint x="400" y="300" as="sourcePoint" />
            <mxPoint x="450" y="250" as="targetPoint" />
          </mxGeometry>
        </mxCell>
        <mxCell id="vYGNaXC8YfMBViBSfSM6-26" value="" style="rounded=1;whiteSpace=wrap;html=1;strokeWidth=3;fontFamily=Times New Roman;fontStyle=1" parent="1" vertex="1">
          <mxGeometry x="310" y="410" width="60" height="40" as="geometry" />
        </mxCell>
        <mxCell id="vYGNaXC8YfMBViBSfSM6-27" value="" style="rounded=1;whiteSpace=wrap;html=1;strokeWidth=3;fontFamily=Times New Roman;fontStyle=1" parent="1" vertex="1">
          <mxGeometry x="317.5" y="417.5" width="45" height="25" as="geometry" />
        </mxCell>
        <mxCell id="vYGNaXC8YfMBViBSfSM6-28" value="" style="endArrow=classic;html=1;rounded=0;entryX=1;entryY=0.5;entryDx=0;entryDy=0;strokeWidth=3;fontFamily=Times New Roman;fontStyle=1" parent="1" edge="1">
          <mxGeometry width="50" height="50" relative="1" as="geometry">
            <mxPoint x="505" y="429.5" as="sourcePoint" />
            <mxPoint x="455" y="429.5" as="targetPoint" />
          </mxGeometry>
        </mxCell>
        <mxCell id="vYGNaXC8YfMBViBSfSM6-29" value="Finalized&lt;div&gt;block&lt;/div&gt;" style="text;html=1;align=center;verticalAlign=middle;resizable=0;points=[];autosize=1;strokeColor=none;fillColor=none;strokeWidth=3;fontFamily=Times New Roman;fontStyle=1" parent="1" vertex="1">
          <mxGeometry x="230" y="410" width="70" height="40" as="geometry" />
        </mxCell>
        <mxCell id="vYGNaXC8YfMBViBSfSM6-30" value="Notarized&lt;div&gt;block&lt;/div&gt;" style="text;html=1;align=center;verticalAlign=middle;resizable=0;points=[];autosize=1;strokeColor=none;fillColor=none;strokeWidth=3;fontFamily=Times New Roman;fontStyle=1" parent="1" vertex="1">
          <mxGeometry x="370" y="410" width="70" height="40" as="geometry" />
        </mxCell>
        <mxCell id="vYGNaXC8YfMBViBSfSM6-31" value="Parent&lt;div&gt;block&lt;/div&gt;" style="text;html=1;align=center;verticalAlign=middle;resizable=0;points=[];autosize=1;strokeColor=none;fillColor=none;strokeWidth=3;fontFamily=Times New Roman;fontStyle=1" parent="1" vertex="1">
          <mxGeometry x="520" y="410" width="50" height="40" as="geometry" />
        </mxCell>
        <mxCell id="41XHdPRcj5EMHJFmo8aP-1" value="" style="rounded=1;whiteSpace=wrap;html=1;strokeWidth=3;fontFamily=Times New Roman;fontStyle=1;fillColor=#000000;" vertex="1" parent="1">
          <mxGeometry x="170" y="410" width="60" height="40" as="geometry" />
        </mxCell>
        <mxCell id="41XHdPRcj5EMHJFmo8aP-2" value="" style="rounded=1;whiteSpace=wrap;html=1;strokeWidth=3;fontFamily=Times New Roman;fontStyle=1" vertex="1" parent="1">
          <mxGeometry x="177.5" y="417.5" width="45" height="25" as="geometry" />
        </mxCell>
      </root>
    </mxGraphModel>
  </diagram>
</mxfile>
